<svg width="100%" viewBox="0 0 680 340" role="img" xmlns="http://www.w3.org/2000/svg" style=""><defs><mask id="imagine-text-gaps-xk0irp" maskUnits="userSpaceOnUse"><rect x="0" y="0" width="680" height="340" fill="white"/><rect x="-86.140625" y="-31" width="172.28125" height="94" fill="black" rx="2"/><rect x="-74.6796875" y="63" width="148.359375" height="20" fill="black" rx="2"/></mask></defs>
  <title style="fill:rgb(0, 0, 0);stroke:none;color:rgb(255, 255, 255);stroke-width:1px;stroke-linecap:butt;stroke-linejoin:miter;opacity:1;font-family:&quot;Anthropic Sans&quot;, -apple-system, BlinkMacSystemFont, &quot;Segoe UI&quot;, sans-serif;font-size:16px;font-weight:400;text-anchor:start;dominant-baseline:auto">Swell logo transparent background</title>
  <desc style="fill:rgb(0, 0, 0);stroke:none;color:rgb(255, 255, 255);stroke-width:1px;stroke-linecap:butt;stroke-linejoin:miter;opacity:1;font-family:&quot;Anthropic Sans&quot;, -apple-system, BlinkMacSystemFont, &quot;Segoe UI&quot;, sans-serif;font-size:16px;font-weight:400;text-anchor:start;dominant-baseline:auto">Swell surf app logo with white wave mark and white wordmark on a transparent background</desc>

  

  <g transform="translate(340, 170)" style="fill:rgb(0, 0, 0);stroke:none;color:rgb(255, 255, 255);stroke-width:1px;stroke-linecap:butt;stroke-linejoin:miter;opacity:1;font-family:&quot;Anthropic Sans&quot;, -apple-system, BlinkMacSystemFont, &quot;Segoe UI&quot;, sans-serif;font-size:16px;font-weight:400;text-anchor:start;dominant-baseline:auto">
    <g transform="translate(-220, -60)" style="fill:rgb(0, 0, 0);stroke:none;color:rgb(255, 255, 255);stroke-width:1px;stroke-linecap:butt;stroke-linejoin:miter;opacity:1;font-family:&quot;Anthropic Sans&quot;, -apple-system, BlinkMacSystemFont, &quot;Segoe UI&quot;, sans-serif;font-size:16px;font-weight:400;text-anchor:start;dominant-baseline:auto">
      <path d="&#10;        M 0 80&#10;        C 20 40, 60 20, 100 50&#10;        C 140 80, 160 30, 200 20&#10;        C 240 10, 270 50, 300 40&#10;        C 330 30, 350 10, 380 0&#10;        C 390 -4, 400 -2, 410 5&#10;        C 400 0, 390 2, 385 8&#10;        C 360 20, 340 40, 310 55&#10;        C 275 70, 248 35, 210 42&#10;        C 170 50, 148 90, 108 75&#10;        C 68 60, 40 80, 10 100&#10;        Z&#10;      " fill="var(--color-text-primary)" style="fill:rgb(250, 249, 245);stroke:none;color:rgb(255, 255, 255);stroke-width:1px;stroke-linecap:butt;stroke-linejoin:miter;opacity:1;font-family:&quot;Anthropic Sans&quot;, -apple-system, BlinkMacSystemFont, &quot;Segoe UI&quot;, sans-serif;font-size:16px;font-weight:400;text-anchor:start;dominant-baseline:auto"/>
      <path d="&#10;        M 30 110&#10;        C 55 75, 90 68, 125 88&#10;        C 160 108, 185 70, 220 60&#10;        C 255 50, 275 80, 310 72&#10;        C 335 66, 355 50, 380 42&#10;        L 380 55&#10;        C 355 65, 332 82, 305 88&#10;        C 270 96, 248 68, 215 76&#10;        C 178 86, 155 122, 118 106&#10;        C 82 90, 58 108, 35 130&#10;        Z&#10;      " fill="var(--color-text-primary)" opacity="0.25" style="fill:rgb(250, 249, 245);stroke:none;color:rgb(255, 255, 255);stroke-width:1px;stroke-linecap:butt;stroke-linejoin:miter;opacity:0.25;font-family:&quot;Anthropic Sans&quot;, -apple-system, BlinkMacSystemFont, &quot;Segoe UI&quot;, sans-serif;font-size:16px;font-weight:400;text-anchor:start;dominant-baseline:auto"/>
    </g>

    <text x="0" y="42" text-anchor="middle" style="fill:rgb(250, 249, 245);stroke:none;color:rgb(255, 255, 255);stroke-width:1px;stroke-linecap:butt;stroke-linejoin:miter;opacity:1;font-family:&quot;Anthropic Sans&quot;, sans-serif;font-size:72px;font-weight:500;text-anchor:middle;dominant-baseline:auto">swell</text>
    <line x1="-130" y1="58" x2="130" y2="58" stroke="var(--color-text-secondary)" stroke-width="0.75" opacity="0.5" mask="url(#imagine-text-gaps-xk0irp)" style="fill:rgb(0, 0, 0);stroke:rgb(194, 192, 182);color:rgb(255, 255, 255);stroke-width:0.75px;stroke-linecap:butt;stroke-linejoin:miter;opacity:0.5;font-family:&quot;Anthropic Sans&quot;, -apple-system, BlinkMacSystemFont, &quot;Segoe UI&quot;, sans-serif;font-size:16px;font-weight:400;text-anchor:start;dominant-baseline:auto"/>
    <text x="0" y="78" text-anchor="middle" style="fill:rgb(194, 192, 182);stroke:none;color:rgb(255, 255, 255);stroke-width:1px;stroke-linecap:butt;stroke-linejoin:miter;opacity:1;font-family:&quot;Anthropic Sans&quot;, sans-serif;font-size:13px;font-weight:400;text-anchor:middle;dominant-baseline:auto">surf assistant</text>
  </g>
</svg>